<svg width="19" height="21" viewBox="0 0 19 21" fill="none" xmlns="http://www.w3.org/2000/svg">
<path d="M12.4762 18.2381C11.6821 19.4286 10.6905 20.0238 9.49999 20.0238C8.30952 20.0238 7.31785 19.4286 6.5238 18.2381M15.5536 16.4524H3.44642C3.09861 16.4526 2.75699 16.3604 2.45648 16.1852C2.15597 16.0101 1.90735 15.7583 1.73603 15.4557C1.5647 15.153 1.47682 14.8102 1.48137 14.4624C1.48591 14.1146 1.58272 13.7743 1.7619 13.4762C2.93027 11.5289 3.5475 9.30069 3.54761 7.02977V5.7381C3.54761 4.47517 4.04931 3.26396 4.94234 2.37093C5.83537 1.4779 7.04658 0.976196 8.30952 0.976196H10.6905C11.9534 0.976196 13.1646 1.4779 14.0576 2.37093C14.9507 3.26396 15.4524 4.47517 15.4524 5.7381V7.02977C15.4524 9.30001 16.069 11.5298 17.2381 13.4762C17.4173 13.7743 17.5141 14.1146 17.5186 14.4624C17.5232 14.8102 17.4353 15.153 17.264 15.4557C17.0926 15.7583 16.844 16.0101 16.5435 16.1852C16.243 16.3604 15.9014 16.4526 15.5536 16.4524Z" stroke="#8E92BC" stroke-linecap="round" stroke-linejoin="round"/>
</svg>
